<svg width="22" height="23" viewBox="0 0 22 23" fill="none" xmlns="http://www.w3.org/2000/svg">
<path d="M10.8 2.49277C9.54844 2.49277 8.38125 2.73184 7.29844 3.20996C6.20156 3.67402 5.24531 4.31387 4.42969 5.12949C3.61406 5.94512 2.97422 6.90137 2.51016 7.99824C2.03203 9.09512 1.79297 10.2623 1.79297 11.4998C1.79297 12.7373 2.03203 13.9045 2.51016 15.0014C2.97422 16.0982 3.61406 17.0545 4.42969 17.8701C5.24531 18.6857 6.20156 19.3256 7.29844 19.7896C8.38125 20.2678 9.54844 20.5068 10.8 20.5068C12.0375 20.5068 13.2047 20.2678 14.3016 19.7896C15.3984 19.3256 16.3547 18.6857 17.1703 17.8701C17.9859 17.0545 18.6258 16.0982 19.0898 15.0014C19.568 13.9045 19.807 12.7373 19.807 11.4998C19.807 10.2623 19.568 9.09512 19.0898 7.99824C18.6258 6.90137 17.9859 5.94512 17.1703 5.12949C16.3547 4.31387 15.3984 3.67402 14.3016 3.20996C13.2047 2.73184 12.0375 2.49277 10.8 2.49277ZM17.0227 7.89277H14.3648C14.2242 7.33027 14.052 6.78184 13.848 6.24746C13.6441 5.71309 13.4086 5.19277 13.1414 4.68652C13.957 4.98184 14.7023 5.40723 15.3773 5.9627C16.0523 6.51816 16.6008 7.16152 17.0227 7.89277ZM10.8 4.32793C11.1797 4.87637 11.5137 5.44941 11.802 6.04707C12.0902 6.64473 12.3258 7.25996 12.5086 7.89277H9.09141C9.27422 7.25996 9.50977 6.64473 9.79805 6.04707C10.0863 5.44941 10.4203 4.87637 10.8 4.32793ZM3.83906 13.2928C3.76875 13.0115 3.7125 12.7197 3.67031 12.4174C3.62813 12.115 3.60703 11.8092 3.60703 11.4998C3.60703 11.1904 3.62813 10.8846 3.67031 10.5822C3.7125 10.2799 3.76875 9.98809 3.83906 9.70684H6.87656C6.83437 10.0021 6.80273 10.2975 6.78164 10.5928C6.76055 10.8881 6.75 11.1904 6.75 11.4998C6.75 11.8092 6.76055 12.1115 6.78164 12.4068C6.80273 12.7021 6.83437 12.9975 6.87656 13.2928H3.83906ZM4.57734 15.1068H7.23516C7.37578 15.6693 7.54805 16.2178 7.75195 16.7521C7.95586 17.2865 8.19141 17.8068 8.45859 18.3131C7.64297 18.0178 6.89766 17.5959 6.22266 17.0475C5.54766 16.499 4.99922 15.8521 4.57734 15.1068ZM7.23516 7.89277H4.57734C4.99922 7.14746 5.54766 6.50059 6.22266 5.95215C6.89766 5.40371 7.64297 4.98184 8.45859 4.68652C8.19141 5.19277 7.95586 5.71309 7.75195 6.24746C7.54805 6.78184 7.37578 7.33027 7.23516 7.89277ZM10.8 18.6717C10.4203 18.1232 10.0863 17.5502 9.79805 16.9525C9.50977 16.3549 9.27422 15.7396 9.09141 15.1068H12.5086C12.3258 15.7396 12.0902 16.3549 11.802 16.9525C11.5137 17.5502 11.1797 18.1232 10.8 18.6717ZM12.9094 13.2928H8.69063C8.64844 12.9975 8.61328 12.7021 8.58516 12.4068C8.55703 12.1115 8.54297 11.8092 8.54297 11.4998C8.54297 11.1904 8.55703 10.8846 8.58516 10.5822C8.61328 10.2799 8.64844 9.98809 8.69063 9.70684H12.9094C12.9516 9.98809 12.9867 10.2799 13.0148 10.5822C13.043 10.8846 13.057 11.1904 13.057 11.4998C13.057 11.8092 13.043 12.1115 13.0148 12.4068C12.9867 12.7021 12.9516 12.9975 12.9094 13.2928ZM13.1414 18.3131C13.4086 17.8068 13.6441 17.2865 13.848 16.7521C14.052 16.2178 14.2242 15.6693 14.3648 15.1068H17.0227C16.6008 15.8381 16.0523 16.4814 15.3773 17.0369C14.7023 17.5924 13.957 18.0178 13.1414 18.3131ZM14.7234 13.2928C14.7656 12.9975 14.7973 12.7021 14.8184 12.4068C14.8395 12.1115 14.85 11.8092 14.85 11.4998C14.85 11.1904 14.8395 10.8881 14.8184 10.5928C14.7973 10.2975 14.7656 10.0021 14.7234 9.70684H17.7609C17.8313 9.98809 17.8875 10.2799 17.9297 10.5822C17.9719 10.8846 17.993 11.1904 17.993 11.4998C17.993 11.8092 17.9719 12.115 17.9297 12.4174C17.8875 12.7197 17.8313 13.0115 17.7609 13.2928H14.7234Z" fill="white"/>
</svg>
