<svg width="22" height="23" viewBox="0 0 22 23" fill="none" xmlns="http://www.w3.org/2000/svg">
<path d="M17.1062 3.40156H4.49219C4 3.40156 3.57812 3.57734 3.22656 3.92891C2.875 4.28047 2.69922 4.70234 2.69922 5.19453V17.8086C2.69922 18.3008 2.875 18.7227 3.22656 19.0742C3.57812 19.4258 4 19.6016 4.49219 19.6016H17.1062C17.5984 19.6016 18.0203 19.4258 18.3719 19.0742C18.7234 18.7227 18.8992 18.3008 18.8992 17.8086V5.19453C18.8992 4.70234 18.7234 4.28047 18.3719 3.92891C18.0203 3.57734 17.5984 3.40156 17.1062 3.40156ZM17.1062 17.8086H4.49219V5.19453H17.1062V17.8086ZM10.1242 7.64141H5.63125V8.99141H10.1242V7.64141ZM16.1992 14.8766H11.7063V16.2266H16.1992V14.8766ZM16.1992 12.6195H11.7063V13.9695H16.1992V12.6195ZM7.19219 16.9016H8.54219V15.1086H10.3563V13.7586H8.54219V11.9445H7.19219V13.7586H5.39922V15.1086H7.19219V16.9016ZM12.6766 10.5523L13.9422 9.28672L15.2078 10.5523L16.1781 9.60312L14.9125 8.31641L16.1781 7.05078L15.2078 6.10156L13.9422 7.36719L12.6766 6.10156L11.7273 7.05078L12.993 8.31641L11.7273 9.60312L12.6766 10.5523Z" fill="#3A4052"/>
</svg>
