<svg width="22" height="23" viewBox="0 0 22 23" fill="none" xmlns="http://www.w3.org/2000/svg">
<path d="M7.19297 7.00742H17.993C18.2461 7.00742 18.4605 6.91953 18.6363 6.74375C18.8121 6.56797 18.9 6.35352 18.9 6.10039C18.9 5.84727 18.8121 5.63281 18.6363 5.45703C18.4605 5.28125 18.2461 5.19336 17.993 5.19336H7.19297C6.95391 5.19336 6.74648 5.28125 6.5707 5.45703C6.39492 5.63281 6.30703 5.84727 6.30703 6.10039C6.30703 6.35352 6.39492 6.56797 6.5707 6.74375C6.74648 6.91953 6.95391 7.00742 7.19297 7.00742ZM17.993 15.9934H7.19297C6.95391 15.9934 6.74648 16.0812 6.5707 16.257C6.39492 16.4328 6.30703 16.6473 6.30703 16.9004C6.30703 17.1535 6.39492 17.368 6.5707 17.5437C6.74648 17.7195 6.95391 17.8074 7.19297 17.8074H17.993C18.2461 17.8074 18.4605 17.7195 18.6363 17.5437C18.8121 17.368 18.9 17.1535 18.9 16.9004C18.9 16.6473 18.8121 16.4328 18.6363 16.257C18.4605 16.0812 18.2461 15.9934 17.993 15.9934ZM17.993 10.5934H7.19297C6.95391 10.5934 6.74648 10.6812 6.5707 10.857C6.39492 11.0328 6.30703 11.2473 6.30703 11.5004C6.30703 11.7535 6.39492 11.968 6.5707 12.1437C6.74648 12.3195 6.95391 12.4074 7.19297 12.4074H17.993C18.2461 12.4074 18.4605 12.3195 18.6363 12.1437C18.8121 11.968 18.9 11.7535 18.9 11.5004C18.9 11.2473 18.8121 11.0328 18.6363 10.857C18.4605 10.6812 18.2461 10.5934 17.993 10.5934ZM4.05 15.1074H2.25703C2.13047 15.1074 2.02148 15.1496 1.93008 15.234C1.83867 15.3184 1.79297 15.4238 1.79297 15.5504C1.79297 15.677 1.83867 15.7824 1.93008 15.8668C2.02148 15.9512 2.13047 15.9934 2.25703 15.9934H3.60703V16.4574H3.14297C3.01641 16.4574 2.91094 16.4996 2.82656 16.584C2.74219 16.6684 2.7 16.7738 2.7 16.9004C2.7 17.027 2.74219 17.1324 2.82656 17.2168C2.91094 17.3012 3.01641 17.3434 3.14297 17.3434H3.60703V17.8074H2.25703C2.13047 17.8074 2.02148 17.8496 1.93008 17.934C1.83867 18.0184 1.79297 18.1238 1.79297 18.2504C1.79297 18.377 1.83867 18.4824 1.93008 18.5668C2.02148 18.6512 2.13047 18.6934 2.25703 18.6934H4.05C4.17656 18.6934 4.28203 18.6512 4.36641 18.5668C4.45078 18.4824 4.49297 18.377 4.49297 18.2504V15.5504C4.49297 15.4238 4.45078 15.3184 4.36641 15.234C4.28203 15.1496 4.17656 15.1074 4.05 15.1074ZM2.25703 5.19336H2.7V7.45039C2.7 7.57695 2.74219 7.68242 2.82656 7.7668C2.91094 7.85117 3.01641 7.89336 3.14297 7.89336C3.26953 7.89336 3.37852 7.85117 3.46992 7.7668C3.56133 7.68242 3.60703 7.57695 3.60703 7.45039V4.75039C3.60703 4.62383 3.56133 4.51836 3.46992 4.43398C3.37852 4.34961 3.26953 4.30742 3.14297 4.30742H2.25703C2.13047 4.30742 2.02148 4.34961 1.93008 4.43398C1.83867 4.51836 1.79297 4.62383 1.79297 4.75039C1.79297 4.87695 1.83867 4.98242 1.93008 5.0668C2.02148 5.15117 2.13047 5.19336 2.25703 5.19336ZM4.05 9.70742H2.25703C2.13047 9.70742 2.02148 9.74961 1.93008 9.83398C1.83867 9.91836 1.79297 10.0238 1.79297 10.1504C1.79297 10.277 1.83867 10.3824 1.93008 10.4668C2.02148 10.5512 2.13047 10.5934 2.25703 10.5934H3.41719L1.89844 12.3652C1.87031 12.4074 1.8457 12.4531 1.82461 12.5023C1.80352 12.5516 1.79297 12.6043 1.79297 12.6605V12.8504C1.79297 12.977 1.83867 13.0824 1.93008 13.1668C2.02148 13.2512 2.13047 13.2934 2.25703 13.2934H4.05C4.17656 13.2934 4.28203 13.2512 4.36641 13.1668C4.45078 13.0824 4.49297 12.977 4.49297 12.8504C4.49297 12.7238 4.45078 12.6184 4.36641 12.534C4.28203 12.4496 4.17656 12.4074 4.05 12.4074H2.88984L4.3875 10.6355C4.42969 10.5934 4.45781 10.5477 4.47187 10.4984C4.48594 10.4492 4.49297 10.3965 4.49297 10.3402V10.1504C4.49297 10.0238 4.45078 9.91836 4.36641 9.83398C4.28203 9.74961 4.17656 9.70742 4.05 9.70742Z" fill="#3A4052"/>
</svg>
