<svg width="22" height="23" viewBox="0 0 22 23" fill="none" xmlns="http://www.w3.org/2000/svg">
<path d="M10.7992 7.89453C9.80078 7.89453 8.95 8.24609 8.24688 8.94922C7.54375 9.65234 7.19219 10.5031 7.19219 11.5016C7.19219 12.5 7.54375 13.3508 8.24688 14.0539C8.95 14.757 9.80078 15.1086 10.7992 15.1086C11.7977 15.1086 12.6484 14.757 13.3516 14.0539C14.0547 13.3508 14.4062 12.5 14.4062 11.5016C14.4062 10.5031 14.0547 9.65234 13.3516 8.94922C12.6484 8.24609 11.7977 7.89453 10.7992 7.89453ZM18.8359 10.5945C18.7375 9.66641 18.4844 8.7875 18.0766 7.95781C17.6688 7.14219 17.1484 6.41797 16.5156 5.78516C15.8828 5.15234 15.1586 4.63203 14.343 4.22422C13.5133 3.81641 12.6344 3.56328 11.7063 3.46484V1.60859H9.89219V3.46484C8.96406 3.56328 8.08516 3.81641 7.25547 4.22422C6.43984 4.63203 5.71563 5.15234 5.08281 5.78516C4.45 6.41797 3.92969 7.14219 3.52188 7.95781C3.11406 8.7875 2.86094 9.66641 2.7625 10.5945H0.90625V12.4086H2.7625C2.86094 13.3367 3.11406 14.2156 3.52188 15.0453C3.92969 15.8609 4.45 16.5852 5.08281 17.218C5.71563 17.8508 6.43984 18.3711 7.25547 18.7789C8.08516 19.1867 8.96406 19.4398 9.89219 19.5383V21.3945H11.7063V19.5383C12.6344 19.4398 13.5133 19.1867 14.343 18.7789C15.1586 18.3711 15.8828 17.8508 16.5156 17.218C17.1484 16.5852 17.6688 15.8609 18.0766 15.0453C18.4844 14.2156 18.7375 13.3367 18.8359 12.4086H20.6922V10.5945H18.8359ZM10.7992 17.8086C9.92734 17.8086 9.11172 17.6398 8.35234 17.3023C7.57891 16.9789 6.90742 16.5324 6.33789 15.9629C5.76836 15.3934 5.32188 14.7219 4.99844 13.9484C4.66094 13.1891 4.49219 12.3734 4.49219 11.5016C4.49219 10.6297 4.66094 9.81406 4.99844 9.05469C5.32188 8.28125 5.76836 7.60977 6.33789 7.04023C6.90742 6.4707 7.57891 6.02422 8.35234 5.70078C9.11172 5.36328 9.92734 5.19453 10.7992 5.19453C11.6711 5.19453 12.4867 5.36328 13.2461 5.70078C14.0195 6.02422 14.691 6.4707 15.2605 7.04023C15.8301 7.60977 16.2766 8.28125 16.6 9.05469C16.9375 9.81406 17.1063 10.6297 17.1063 11.5016C17.1063 12.3734 16.9375 13.1891 16.6 13.9484C16.2766 14.7219 15.8301 15.3934 15.2605 15.9629C14.691 16.5324 14.0195 16.9789 13.2461 17.3023C12.4867 17.6398 11.6711 17.8086 10.7992 17.8086Z" fill="#3A4052"/>
</svg>
