<svg width="19" height="19" viewBox="0 0 19 19" fill="none" xmlns="http://www.w3.org/2000/svg">
<path d="M9.8 0.492773C8.54844 0.492773 7.38125 0.731836 6.29844 1.20996C5.20156 1.67402 4.24531 2.31387 3.42969 3.12949C2.61406 3.94512 1.97422 4.90137 1.51016 5.99824C1.03203 7.09512 0.792969 8.2623 0.792969 9.4998C0.792969 10.7373 1.03203 11.9045 1.51016 13.0014C1.97422 14.0982 2.61406 15.0545 3.42969 15.8701C4.24531 16.6857 5.20156 17.3256 6.29844 17.7896C7.38125 18.2678 8.54844 18.5068 9.8 18.5068C11.0375 18.5068 12.2047 18.2678 13.3016 17.7896C14.3984 17.3256 15.3547 16.6857 16.1703 15.8701C16.9859 15.0545 17.6258 14.0982 18.0898 13.0014C18.568 11.9045 18.807 10.7373 18.807 9.4998C18.807 8.2623 18.568 7.09512 18.0898 5.99824C17.6258 4.90137 16.9859 3.94512 16.1703 3.12949C15.3547 2.31387 14.3984 1.67402 13.3016 1.20996C12.2047 0.731836 11.0375 0.492773 9.8 0.492773ZM16.0227 5.89277H13.3648C13.2242 5.33027 13.052 4.78184 12.848 4.24746C12.6441 3.71309 12.4086 3.19277 12.1414 2.68652C12.957 2.98184 13.7023 3.40723 14.3773 3.9627C15.0523 4.51816 15.6008 5.16152 16.0227 5.89277ZM9.8 2.32793C10.1797 2.87637 10.5137 3.44941 10.802 4.04707C11.0902 4.64473 11.3258 5.25996 11.5086 5.89277H8.09141C8.27422 5.25996 8.50977 4.64473 8.79805 4.04707C9.08633 3.44941 9.42031 2.87637 9.8 2.32793ZM2.83906 11.2928C2.76875 11.0115 2.7125 10.7197 2.67031 10.4174C2.62813 10.115 2.60703 9.80918 2.60703 9.4998C2.60703 9.19043 2.62813 8.88457 2.67031 8.58223C2.7125 8.27988 2.76875 7.98809 2.83906 7.70684H5.87656C5.83437 8.00215 5.80273 8.29746 5.78164 8.59277C5.76055 8.88809 5.75 9.19043 5.75 9.4998C5.75 9.80918 5.76055 10.1115 5.78164 10.4068C5.80273 10.7021 5.83437 10.9975 5.87656 11.2928H2.83906ZM3.57734 13.1068H6.23516C6.37578 13.6693 6.54805 14.2178 6.75195 14.7521C6.95586 15.2865 7.19141 15.8068 7.45859 16.3131C6.64297 16.0178 5.89766 15.5959 5.22266 15.0475C4.54766 14.499 3.99922 13.8521 3.57734 13.1068ZM6.23516 5.89277H3.57734C3.99922 5.14746 4.54766 4.50059 5.22266 3.95215C5.89766 3.40371 6.64297 2.98184 7.45859 2.68652C7.19141 3.19277 6.95586 3.71309 6.75195 4.24746C6.54805 4.78184 6.37578 5.33027 6.23516 5.89277ZM9.8 16.6717C9.42031 16.1232 9.08633 15.5502 8.79805 14.9525C8.50977 14.3549 8.27422 13.7396 8.09141 13.1068H11.5086C11.3258 13.7396 11.0902 14.3549 10.802 14.9525C10.5137 15.5502 10.1797 16.1232 9.8 16.6717ZM11.9094 11.2928H7.69063C7.64844 10.9975 7.61328 10.7021 7.58516 10.4068C7.55703 10.1115 7.54297 9.80918 7.54297 9.4998C7.54297 9.19043 7.55703 8.88457 7.58516 8.58223C7.61328 8.27988 7.64844 7.98809 7.69063 7.70684H11.9094C11.9516 7.98809 11.9867 8.27988 12.0148 8.58223C12.043 8.88457 12.057 9.19043 12.057 9.4998C12.057 9.80918 12.043 10.1115 12.0148 10.4068C11.9867 10.7021 11.9516 10.9975 11.9094 11.2928ZM12.1414 16.3131C12.4086 15.8068 12.6441 15.2865 12.848 14.7521C13.052 14.2178 13.2242 13.6693 13.3648 13.1068H16.0227C15.6008 13.8381 15.0523 14.4814 14.3773 15.0369C13.7023 15.5924 12.957 16.0178 12.1414 16.3131ZM13.7234 11.2928C13.7656 10.9975 13.7973 10.7021 13.8184 10.4068C13.8395 10.1115 13.85 9.80918 13.85 9.4998C13.85 9.19043 13.8395 8.88809 13.8184 8.59277C13.7973 8.29746 13.7656 8.00215 13.7234 7.70684H16.7609C16.8313 7.98809 16.8875 8.27988 16.9297 8.58223C16.9719 8.88457 16.993 9.19043 16.993 9.4998C16.993 9.80918 16.9719 10.115 16.9297 10.4174C16.8875 10.7197 16.8313 11.0115 16.7609 11.2928H13.7234Z" fill="#3A4052"/>
</svg>
